<svg height="2398" width="720" xmlns="http://www.w3.org/2000/svg">
<rect height="2398" fill="#555" width="720"></rect>
<text fill="#7f7" font-family="Courier New" font-size="12" xml:space="preserve">
<tspan x="10" y="26">5 megabytes installed</tspan>
<tspan x="10" y="42"></tspan>
<tspan x="10" y="58">node_modules</tspan>
<tspan x="10" y="74">└─┬ trash-cli@1.4.0 </tspan>
<tspan x="10" y="90">  ├─┬ meow@3.7.0 </tspan>
<tspan x="10" y="106">  │ ├─┬ camelcase-keys@2.1.0 </tspan>
<tspan x="10" y="122">  │ │ └── camelcase@2.1.1 </tspan>
<tspan x="10" y="138">  │ ├── decamelize@1.2.0 </tspan>
<tspan x="10" y="154">  │ ├─┬ loud-rejection@1.6.0 </tspan>
<tspan x="10" y="170">  │ │ ├─┬ currently-unhandled@0.4.1 </tspan>
<tspan x="10" y="186">  │ │ │ └── array-find-index@1.0.2 </tspan>
<tspan x="10" y="202">  │ │ └── signal-exit@3.0.2 </tspan>
<tspan x="10" y="218">  │ ├── map-obj@1.0.1 </tspan>
<tspan x="10" y="234">  │ ├── minimist@1.2.0 </tspan>
<tspan x="10" y="250">  │ ├─┬ normalize-package-data@2.3.6 </tspan>
<tspan x="10" y="266">  │ │ ├── hosted-git-info@2.4.2 </tspan>
<tspan x="10" y="282">  │ │ ├─┬ is-builtin-module@1.0.0 </tspan>
<tspan x="10" y="298">  │ │ │ └── builtin-modules@1.1.1 </tspan>
<tspan x="10" y="314">  │ │ ├── semver@5.3.0 </tspan>
<tspan x="10" y="330">  │ │ └─┬ validate-npm-package-license@3.0.1 </tspan>
<tspan x="10" y="346">  │ │   ├─┬ spdx-correct@1.0.2 </tspan>
<tspan x="10" y="362">  │ │   │ └── spdx-license-ids@1.2.2 </tspan>
<tspan x="10" y="378">  │ │   └── spdx-expression-parse@1.0.4 </tspan>
<tspan x="10" y="394">  │ ├── object-assign@4.1.1 </tspan>
<tspan x="10" y="410">  │ ├─┬ read-pkg-up@1.0.1 </tspan>
<tspan x="10" y="426">  │ │ ├─┬ find-up@1.1.2 </tspan>
<tspan x="10" y="442">  │ │ │ └── path-exists@2.1.0 </tspan>
<tspan x="10" y="458">  │ │ └─┬ read-pkg@1.1.0 </tspan>
<tspan x="10" y="474">  │ │   ├─┬ load-json-file@1.1.0 </tspan>
<tspan x="10" y="490">  │ │   │ ├─┬ parse-json@2.2.0 </tspan>
<tspan x="10" y="506">  │ │   │ │ └─┬ error-ex@1.3.1 </tspan>
<tspan x="10" y="522">  │ │   │ │   └── is-arrayish@0.2.1 </tspan>
<tspan x="10" y="538">  │ │   │ └─┬ strip-bom@2.0.0 </tspan>
<tspan x="10" y="554">  │ │   │   └── is-utf8@0.2.1 </tspan>
<tspan x="10" y="570">  │ │   └── path-type@1.1.0 </tspan>
<tspan x="10" y="586">  │ ├─┬ redent@1.0.0 </tspan>
<tspan x="10" y="602">  │ │ ├── indent-string@2.1.0 </tspan>
<tspan x="10" y="618">  │ │ └─┬ strip-indent@1.0.1 </tspan>
<tspan x="10" y="634">  │ │   └── get-stdin@4.0.1 </tspan>
<tspan x="10" y="650">  │ └── trim-newlines@1.0.0 </tspan>
<tspan x="10" y="666">  ├─┬ trash@4.0.1 </tspan>
<tspan x="10" y="682">  │ ├── escape-string-applescript@1.0.0 </tspan>
<tspan x="10" y="698">  │ ├─┬ fs-extra@0.30.0 </tspan>
<tspan x="10" y="714">  │ │ ├── graceful-fs@4.1.11 </tspan>
<tspan x="10" y="730">  │ │ ├── jsonfile@2.4.0 </tspan>
<tspan x="10" y="746">  │ │ ├── klaw@1.3.1 </tspan>
<tspan x="10" y="762">  │ │ ├── path-is-absolute@1.0.1 </tspan>
<tspan x="10" y="778">  │ │ └── rimraf@2.6.1 </tspan>
<tspan x="10" y="794">  │ ├─┬ globby@6.1.0 </tspan>
<tspan x="10" y="810">  │ │ ├─┬ array-union@1.0.2 </tspan>
<tspan x="10" y="826">  │ │ │ └── array-uniq@1.0.3 </tspan>
<tspan x="10" y="842">  │ │ ├─┬ glob@7.1.1 </tspan>
<tspan x="10" y="858">  │ │ │ ├── fs.realpath@1.0.0 </tspan>
<tspan x="10" y="874">  │ │ │ ├─┬ inflight@1.0.6 </tspan>
<tspan x="10" y="890">  │ │ │ │ └── wrappy@1.0.2 </tspan>
<tspan x="10" y="906">  │ │ │ ├── inherits@2.0.3 </tspan>
<tspan x="10" y="922">  │ │ │ ├─┬ minimatch@3.0.3 </tspan>
<tspan x="10" y="938">  │ │ │ │ └─┬ brace-expansion@1.1.7 </tspan>
<tspan x="10" y="954">  │ │ │ │   ├── balanced-match@0.4.2 </tspan>
<tspan x="10" y="970">  │ │ │ │   └── concat-map@0.0.1 </tspan>
<tspan x="10" y="986">  │ │ │ └── once@1.4.0 </tspan>
<tspan x="10" y="1002">  │ │ └─┬ pinkie-promise@2.0.1 </tspan>
<tspan x="10" y="1018">  │ │   └── pinkie@2.0.4 </tspan>
<tspan x="10" y="1034">  │ ├── path-exists@3.0.0 </tspan>
<tspan x="10" y="1050">  │ ├── pify@2.3.0 </tspan>
<tspan x="10" y="1066">  │ ├─┬ run-applescript@3.0.0 </tspan>
<tspan x="10" y="1082">  │ │ └─┬ execa@0.4.0 </tspan>
<tspan x="10" y="1098">  │ │   ├─┬ cross-spawn-async@2.2.5 </tspan>
<tspan x="10" y="1114">  │ │   │ ├─┬ lru-cache@4.0.2 </tspan>
<tspan x="10" y="1130">  │ │   │ │ ├── pseudomap@1.0.2 </tspan>
<tspan x="10" y="1146">  │ │   │ │ └── yallist@2.1.2 </tspan>
<tspan x="10" y="1162">  │ │   │ └─┬ which@1.2.14 </tspan>
<tspan x="10" y="1178">  │ │   │   └── isexe@2.0.0 </tspan>
<tspan x="10" y="1194">  │ │   ├── is-stream@1.1.0 </tspan>
<tspan x="10" y="1210">  │ │   ├── npm-run-path@1.0.0 </tspan>
<tspan x="10" y="1226">  │ │   ├── path-key@1.0.0 </tspan>
<tspan x="10" y="1242">  │ │   └── strip-eof@1.0.0 </tspan>
<tspan x="10" y="1258">  │ ├── uuid@2.0.3 </tspan>
<tspan x="10" y="1274">  │ └─┬ xdg-trashdir@2.1.0 </tspan>
<tspan x="10" y="1290">  │   ├── @sindresorhus/df@1.0.1 </tspan>
<tspan x="10" y="1306">  │   ├── mount-point@1.2.0 </tspan>
<tspan x="10" y="1322">  │   ├─┬ pinkie-promise@1.0.0 </tspan>
<tspan x="10" y="1338">  │   │ └── pinkie@1.0.0 </tspan>
<tspan x="10" y="1354">  │   ├── user-home@1.1.1 </tspan>
<tspan x="10" y="1370">  │   └── xdg-basedir@1.0.1 </tspan>
<tspan x="10" y="1386">  └─┬ update-notifier@1.0.3 </tspan>
<tspan x="10" y="1402">    ├─┬ boxen@0.6.0 </tspan>
<tspan x="10" y="1418">    │ ├── ansi-align@1.1.0 </tspan>
<tspan x="10" y="1434">    │ ├── cli-boxes@1.0.0 </tspan>
<tspan x="10" y="1450">    │ ├── filled-array@1.1.0 </tspan>
<tspan x="10" y="1466">    │ ├─┬ repeating@2.0.1 </tspan>
<tspan x="10" y="1482">    │ │ └─┬ is-finite@1.0.2 </tspan>
<tspan x="10" y="1498">    │ │   └── number-is-nan@1.0.1 </tspan>
<tspan x="10" y="1514">    │ ├─┬ string-width@1.0.2 </tspan>
<tspan x="10" y="1530">    │ │ ├── code-point-at@1.1.0 </tspan>
<tspan x="10" y="1546">    │ │ └── is-fullwidth-code-point@1.0.0 </tspan>
<tspan x="10" y="1562">    │ └── widest-line@1.0.0 </tspan>
<tspan x="10" y="1578">    ├─┬ chalk@1.1.3 </tspan>
<tspan x="10" y="1594">    │ ├── ansi-styles@2.2.1 </tspan>
<tspan x="10" y="1610">    │ ├── escape-string-regexp@1.0.5 </tspan>
<tspan x="10" y="1626">    │ ├─┬ has-ansi@2.0.0 </tspan>
<tspan x="10" y="1642">    │ │ └── ansi-regex@2.1.1 </tspan>
<tspan x="10" y="1658">    │ ├── strip-ansi@3.0.1 </tspan>
<tspan x="10" y="1674">    │ └── supports-color@2.0.0 </tspan>
<tspan x="10" y="1690">    ├─┬ configstore@2.1.0 </tspan>
<tspan x="10" y="1706">    │ ├─┬ dot-prop@3.0.0 </tspan>
<tspan x="10" y="1722">    │ │ └── is-obj@1.0.1 </tspan>
<tspan x="10" y="1738">    │ ├─┬ mkdirp@0.5.1 </tspan>
<tspan x="10" y="1754">    │ │ └── minimist@0.0.8 </tspan>
<tspan x="10" y="1770">    │ ├── os-tmpdir@1.0.2 </tspan>
<tspan x="10" y="1786">    │ ├── osenv@0.1.4 </tspan>
<tspan x="10" y="1802">    │ ├─┬ write-file-atomic@1.3.1 </tspan>
<tspan x="10" y="1818">    │ │ ├── imurmurhash@0.1.4 </tspan>
<tspan x="10" y="1834">    │ │ └── slide@1.1.6 </tspan>
<tspan x="10" y="1850">    │ └── xdg-basedir@2.0.0 </tspan>
<tspan x="10" y="1866">    ├── is-npm@1.0.0 </tspan>
<tspan x="10" y="1882">    ├─┬ latest-version@2.0.0 </tspan>
<tspan x="10" y="1898">    │ └─┬ package-json@2.4.0 </tspan>
<tspan x="10" y="1914">    │   ├─┬ got@5.7.1 </tspan>
<tspan x="10" y="1930">    │   │ ├─┬ create-error-class@3.0.2 </tspan>
<tspan x="10" y="1946">    │   │ │ └── capture-stack-trace@1.0.0 </tspan>
<tspan x="10" y="1962">    │   │ ├── duplexer2@0.1.4 </tspan>
<tspan x="10" y="1978">    │   │ ├── is-redirect@1.0.0 </tspan>
<tspan x="10" y="1994">    │   │ ├── is-retry-allowed@1.1.0 </tspan>
<tspan x="10" y="2010">    │   │ ├── lowercase-keys@1.0.0 </tspan>
<tspan x="10" y="2026">    │   │ ├── node-status-codes@1.0.0 </tspan>
<tspan x="10" y="2042">    │   │ ├── read-all-stream@3.1.0 </tspan>
<tspan x="10" y="2058">    │   │ ├─┬ readable-stream@2.2.9 </tspan>
<tspan x="10" y="2074">    │   │ │ ├── buffer-shims@1.0.0 </tspan>
<tspan x="10" y="2090">    │   │ │ ├── core-util-is@1.0.2 </tspan>
<tspan x="10" y="2106">    │   │ │ ├── isarray@1.0.0 </tspan>
<tspan x="10" y="2122">    │   │ │ ├── process-nextick-args@1.0.7 </tspan>
<tspan x="10" y="2138">    │   │ │ ├── string_decoder@1.0.0 </tspan>
<tspan x="10" y="2154">    │   │ │ └── util-deprecate@1.0.2 </tspan>
<tspan x="10" y="2170">    │   │ ├── timed-out@3.1.3 </tspan>
<tspan x="10" y="2186">    │   │ ├── unzip-response@1.0.2 </tspan>
<tspan x="10" y="2202">    │   │ └─┬ url-parse-lax@1.0.0 </tspan>
<tspan x="10" y="2218">    │   │   └── prepend-http@1.0.4 </tspan>
<tspan x="10" y="2234">    │   ├─┬ registry-auth-token@3.1.2 </tspan>
<tspan x="10" y="2250">    │   │ └─┬ rc@1.2.1 </tspan>
<tspan x="10" y="2266">    │   │   ├── deep-extend@0.4.1 </tspan>
<tspan x="10" y="2282">    │   │   ├── ini@1.3.4 </tspan>
<tspan x="10" y="2298">    │   │   └── strip-json-comments@2.0.1 </tspan>
<tspan x="10" y="2314">    │   └── registry-url@3.1.0 </tspan>
<tspan x="10" y="2330">    ├── lazy-req@1.1.0 </tspan>
<tspan x="10" y="2346">    ├── semver-diff@2.1.0 </tspan>
<tspan x="10" y="2362">    └─┬ xdg-basedir@2.0.0 </tspan>
<tspan x="10" y="2378">      └── os-homedir@1.0.2</tspan>
</text>
</svg>
